<svg xmlns="http://www.w3.org/2000/svg" viewBox="-239.5 -32.2 409.6 246.6" width="409.6" height="246.6"><text font-family="ui-monospace,Consolas,Menlo,monospace" font-size="10" letter-spacing=".4" fill="#fff" x="-160.7" y="159.6" text-anchor="middle" transform="rotate(30 -160.7 165.6)">9,10 m</text><text font-family="ui-monospace,Consolas,Menlo,monospace" font-size="10" letter-spacing=".4" fill="#fff" x="56.8" y="139.6" text-anchor="middle" transform="rotate(-30 56.8 145.6)">14,10 m</text><path d="M-205.1 112.8L-69.3 191.2L-69.3 186.4L-205.1 108ZM135.8 72.8L-69.3 191.2L-69.3 186.4L135.8 68ZM0 -10.4L135.8 68L-69.3 186.4L-205.1 108Z" fill="#000" stroke="#fff" stroke-width="0.95" stroke-linejoin="round"/><path d="M-31.5 53.8L-29.5 55L-29.5 36.6L-31.5 35.4ZM35.3 17.5L-29.5 55L-29.5 36.6L35.3 -0.9ZM33.4 -2L35.3 -0.9L-29.5 36.6L-31.5 35.4Z" fill="#000" stroke="#fff" stroke-width="0.95" stroke-linejoin="round"/><path d="M-11.9 43.7L21.3 62.9L21.3 44.5L-11.9 25.3ZM23 61.9L21.3 62.9L21.3 44.5L23 43.5ZM-10.3 24.3L23 43.5L21.3 44.5L-11.9 25.3Z" fill="#000" stroke="#fff" stroke-width="0.95" stroke-linejoin="round"/><path d="M-1.7 -3.8L124.4 69L124.4 50.6L-1.7 -22.2ZM127.8 67L124.4 69L124.4 50.6L127.8 48.6ZM1.7 -24.2L127.8 48.6L124.4 50.6L-1.7 -22.2Z" fill="#000" stroke="#fff" stroke-width="0.95" stroke-linejoin="round"/><path d="M20 78.7L21.6 79.7L21.6 61.3L20 60.3ZM36.9 70.9L21.6 79.7L21.6 61.3L36.9 52.5ZM35.2 51.5L36.9 52.5L21.6 61.3L20 60.3Z" fill="#000" stroke="#fff" stroke-width="0.95" stroke-linejoin="round"/><path d="M-64.6 74.1L-53.5 80.5L-53.5 62.1L-64.6 55.7ZM-51.8 79.5L-53.5 80.5L-53.5 62.1L-51.8 61.1ZM-62.9 54.7L-51.8 61.1L-53.5 62.1L-64.6 55.7Z" fill="#000" stroke="#fff" stroke-width="0.95" stroke-linejoin="round"/><path d="M-98 92.2L-96 93.4L-96 75L-98 73.8ZM-51.7 67.8L-96 93.4L-96 75L-51.7 49.4ZM-53.6 48.2L-51.7 49.4L-96 75L-98 73.8Z" fill="#000" stroke="#fff" stroke-width="0.95" stroke-linejoin="round"/><path d="M35.2 70.9L78.2 95.7L78.2 77.3L35.2 52.5ZM79.8 94.7L78.2 95.7L78.2 77.3L79.8 76.3ZM36.9 51.5L79.8 76.3L78.2 77.3L35.2 52.5Z" fill="#000" stroke="#fff" stroke-width="0.95" stroke-linejoin="round"/><path d="M-17.5 100.3L-15.8 101.3L-15.8 82.9L-17.5 81.9ZM7.8 87.7L-15.8 101.3L-15.8 82.9L7.8 69.3ZM6.1 68.3L7.8 69.3L-15.8 82.9L-17.5 81.9Z" fill="#000" stroke="#fff" stroke-width="0.95" stroke-linejoin="round"/><path d="M-38.2 89.3L-5 108.5L-5 90.1L-38.2 70.9ZM-3.3 107.5L-5 108.5L-5 90.1L-3.3 89.1ZM-36.6 69.9L-3.3 89.1L-5 90.1L-38.2 70.9Z" fill="#000" stroke="#fff" stroke-width="0.95" stroke-linejoin="round"/><path d="M-197.1 107L-193.6 109L-193.6 90.6L-197.1 88.6ZM1.7 -3.8L-193.6 109L-193.6 90.6L1.7 -22.2ZM-1.7 -24.2L1.7 -22.2L-193.6 90.6L-197.1 88.6Z" fill="#000" stroke="#fff" stroke-width="0.95" stroke-linejoin="round"/><path d="M-47.9 111.5L-46.3 112.5L-46.3 94.1L-47.9 93.1ZM-21.3 98.1L-46.3 112.5L-46.3 94.1L-21.3 79.7ZM-23 78.7L-21.3 79.7L-46.3 94.1L-47.9 93.1Z" fill="#000" stroke="#fff" stroke-width="0.95" stroke-linejoin="round"/><path d="M8.9 116.5L25.5 126.1L25.5 107.7L8.9 98.1ZM27.2 125.1L25.5 126.1L25.5 107.7L27.2 106.7ZM10.5 97.1L27.2 106.7L25.5 107.7L8.9 98.1Z" fill="#000" stroke="#fff" stroke-width="0.95" stroke-linejoin="round"/><path d="M-158.9 127.4L-157 128.6L-157 110.2L-158.9 109ZM-118.2 106.2L-157 128.6L-157 110.2L-118.2 87.8ZM-120.1 86.6L-118.2 87.8L-157 110.2L-158.9 109Z" fill="#000" stroke="#fff" stroke-width="0.95" stroke-linejoin="round"/><path d="M-67.3 123.7L-53.5 131.7L-53.5 113.3L-67.3 105.3ZM-51.8 130.7L-53.5 131.7L-53.5 113.3L-51.8 112.3ZM-65.7 104.3L-51.8 112.3L-53.5 113.3L-67.3 105.3Z" fill="#000" stroke="#fff" stroke-width="0.95" stroke-linejoin="round"/><path d="M-39.6 139.7L-18.8 151.7L-18.8 133.3L-39.6 121.3ZM-17.2 150.7L-18.8 151.7L-18.8 133.3L-17.2 132.3ZM-38 120.3L-17.2 132.3L-18.8 133.3L-39.6 121.3Z" fill="#000" stroke="#fff" stroke-width="0.95" stroke-linejoin="round"/><path d="M-118.6 152.3L-116.9 153.3L-116.9 134.9L-118.6 133.9ZM-60.1 120.5L-116.9 153.3L-116.9 134.9L-60.1 102.1ZM-61.8 101.1L-60.1 102.1L-116.9 134.9L-118.6 133.9Z" fill="#000" stroke="#fff" stroke-width="0.95" stroke-linejoin="round"/><path d="M-92.3 138.1L-43.8 166.1L-43.8 147.7L-92.3 119.7ZM-42.1 165.1L-43.8 166.1L-43.8 147.7L-42.1 146.7ZM-90.6 118.7L-42.1 146.7L-43.8 147.7L-92.3 119.7Z" fill="#000" stroke="#fff" stroke-width="0.95" stroke-linejoin="round"/><path d="M-197.1 109L-71 181.8L-71 163.4L-197.1 90.6ZM-67.5 179.8L-71 181.8L-71 163.4L-67.5 161.4ZM-193.6 88.6L-67.5 161.4L-71 163.4L-197.1 90.6Z" fill="#000" stroke="#fff" stroke-width="0.95" stroke-linejoin="round"/><path d="M-71 179.8L-67.5 181.8L-67.5 163.4L-71 161.4ZM127.8 69L-67.5 181.8L-67.5 163.4L127.8 50.6ZM124.4 48.6L127.8 50.6L-67.5 163.4L-71 161.4Z" fill="#000" stroke="#fff" stroke-width="0.95" stroke-linejoin="round"/></svg>