<svg xmlns="http://www.w3.org/2000/svg" viewBox="0 0 999.6 679.5999999999999" width="999.6" height="679.5999999999999"><path d="M63 70h14v509.6h-14Z" fill="#000" stroke="#000" stroke-width="1.11" stroke-linejoin="round"/><path d="M852.6 70h14v509.6h-14Z" fill="#000" stroke="#000" stroke-width="1.11" stroke-linejoin="round"/><path d="M70 63h789.6v14h-789.6Z" fill="#000" stroke="#000" stroke-width="1.11" stroke-linejoin="round"/><path d="M70 572.6h789.6v14h-789.6Z" fill="#000" stroke="#000" stroke-width="1.11" stroke-linejoin="round"/><path d="M76.7 211.7h262.1v7.8h-262.1Z" fill="#000" stroke="#000" stroke-width="1.11" stroke-linejoin="round"/><path d="M428.4 211.7h179.2v7.8h-179.2Z" fill="#000" stroke="#000" stroke-width="1.11" stroke-linejoin="round"/><path d="M697.2 211.7h156.8v7.8h-156.8Z" fill="#000" stroke="#000" stroke-width="1.11" stroke-linejoin="round"/><path d="M257 215.6h6.7v134.4h-6.7Z" fill="#000" stroke="#000" stroke-width="1.11" stroke-linejoin="round"/><path d="M257 406h6.7v173.6h-6.7Z" fill="#000" stroke="#000" stroke-width="1.11" stroke-linejoin="round"/><path d="M469.8 215.6h6.7v44.8h-6.7Z" fill="#000" stroke="#000" stroke-width="1.11" stroke-linejoin="round"/><path d="M469.8 322h6.7v134.4h-6.7Z" fill="#000" stroke="#000" stroke-width="1.11" stroke-linejoin="round"/><path d="M469.8 512.4h6.7v67.2h-6.7Z" fill="#000" stroke="#000" stroke-width="1.11" stroke-linejoin="round"/><path d="M260.4 402.6h61.6v6.7h-61.6Z" fill="#000" stroke="#000" stroke-width="1.11" stroke-linejoin="round"/><path d="M378 402.6h95.2v6.7h-95.2Z" fill="#000" stroke="#000" stroke-width="1.11" stroke-linejoin="round"/><path d="M473.2 380.2h100.8v6.7h-100.8Z" fill="#000" stroke="#000" stroke-width="1.11" stroke-linejoin="round"/><path d="M630 380.2h229.6v6.7h-229.6Z" fill="#000" stroke="#000" stroke-width="1.11" stroke-linejoin="round"/><path d="M649 383.6h6.7v56h-6.7Z" fill="#000" stroke="#000" stroke-width="1.11" stroke-linejoin="round"/><path d="M649 495.6h6.7v84h-6.7Z" fill="#000" stroke="#000" stroke-width="1.11" stroke-linejoin="round"/><path d="M749.8 383.6h6.7v196h-6.7Z" fill="#000" stroke="#000" stroke-width="1.11" stroke-linejoin="round"/><path d="M70 623.6H859.6M65 628.6l10 -10M255.4 628.6l10 -10M468.2 628.6l10 -10M647.4 628.6l10 -10M854.6 628.6l10 -10" fill="none" stroke="#fff" stroke-width="1.11" stroke-linejoin="round"/><path d="M903.6 70V579.6M898.6 75l10 -10M898.6 220.6l10 -10M898.6 411l10 -10M898.6 584.6l10 -10" fill="none" stroke="#fff" stroke-width="1.11" stroke-linejoin="round"/></svg>