<svg xmlns="http://www.w3.org/2000/svg" viewBox="0 0 1402 508" width="1402" height="508" fill="none" stroke="currentColor" stroke-linecap="round" stroke-linejoin="round"><title>Villa demo - cross section, line drawing</title><g id="poche" fill="currentColor" stroke="none"><path fill-rule="evenodd" d="m1383.5 14-30 0 0 393 30 0zm-172.5 480 142.5 0 0-3-142.5 0zm-1159-243.3.2-.6 0-5.7-.2-.6-.7-.3-35.7 0-.6.3-.3.6 0 5.7.3.6.6.3 2.9 0 0 156 1192.5 0 0-393-15 0 0 390-195 0 0-390-15 0 0 390-494.1 0 .4-.2.2-.4 0-6.3-.2-.4-.4-.2-9.6 0 .3-.1.2-.4 0-5.8-.2-.3-.3-.2-5.1 0-.3.2-.1.3 0 5.8.1.4.3.1-2.1 0-.4.2-.2.4 0 6.3.2.4.4.2-426.6 0 0-153 2.8 0zm422.7-191.5-.2.4 0 6.3.2.4.4.2 2.1 0-.3.1-.1.3 0 5.9.1.3.3.1 5.1 0 .3-.1.2-.3 0-5.9-.2-.3-.3-.1 9.6 0 .4-.2.2-.4 0-6.3-.2-.4-.4-.2 6.6 0 0-45-30 0 0 45 6.6 0z"/></g><g id="floors" stroke-width="0.8" opacity="0.6"><path d="m1211.2 404 142 0"/></g><g id="fine" stroke-width="0.7" opacity="0.55"><path d="m1098.5 403.2.7-.7 40.9 0m-41.4.7 41.4 0m-41.4 0 .5-.5 40.9 0m6.8-.2 36 0m-36 .2 36 0m-36 .5 36 0"/></g><g id="furniture" stroke-width="1.0" opacity="0.85"><path d="m110 360 0-46.2.9-1.8m100.2 0 .9 1.8 0 46.2m21 0 0-46.2.9-1.8m100.2 0 .9 1.8 0 46.2m193.7-33.8 65.6 0m-65.6 0 12.7-.2m-12.7 2.8 65.6 0m-65.6 0 12.7.2m0-127.5 4.2 0m-4.2 124.5 0-124.5m0 0-30.9 0 6-40.5 54 0 6 40.5-30.9 0m-4.2 124.5 4.2 0m-4.2 3 4.2 0m-4.2 72 0-72m0 72 4.2 0m0-75 0-124.5m0 127.5 13.2 0m-13.2 72 0-72m0 72 13.2 0m-12.3-75 12 0m-12 0 0-13.5 12 0 0 13.5m0 0 35.8.2m-35.5 2.8 5.4 0m-5.4 72 0-72m0 72 5.4 0m0-72 30.1-.2m-30.1 72.2 0-72m39.3-6 0 36 .7 3.4 1.9 3 3 1.9 3.4.7m-9-45 0-24 .7-3.4 1.9-3 3-1.9 3.4-.7 10.7 0m-19.7 33 .7-3.4 1.9-3 3-1.9 3.4-.7 12 0 3.4.7 3 1.9 1.9 3 .7 3.4 0 36-.7 3.4-1.9 3-3 1.9-3.4.7m-20.1 26.1-.9-2.1 0-21 .9-2.1m0 0 2.1-.9 6 0m-8.1 26.1 2.1.9 1.5 0m-3.2-1.3-.4-1.7 0-21 .4-1.7m3.2 25.7 9 0m-4.5-27 12 0m-1.3-57.3.3-27.8.3-3.1 1.1-3.1m0-.1 1.6-1.9 2-1.6 3.3-.9 3.2-.4 29.6-.3 12.4.3 5.2.8m-47.2 60.9 34 .3m-19.6-260.7-.9-2.1 0-36 .9-2.1m0 0 2.1-.9 129 0 2.1.9m-133.2 40.2 2.1.9 129 0 2.1-.9m-132.8-.4-.4-1.7 0-36 .4-1.7m0 0 1.7-.4 129 0 1.7.4m-132.4 39.4 1.7.4 129 0 1.7-.4m-113.2 261.1 26.5 0m-26.5 0 8-.3 5.2-.8m0 0 5.3.8 8 .3m-13.2-61.2 5.2-.8 12.4-.3 29.6.3 3.3.4 3.2.9 2 1.6 1.6 1.9m-44.1 57.2 34-.3 5.2-.7 3.4-2.2m0 0 1.5 1.1 5 1.3 16.5.7 33.7.2m-55.2-57.2 1.2 4.4m-1.2 47.5 1.1-3.1.5-7.9.1-23-.5-13.5m0 0 3.8-.9 21.8-.8m1-2.7-1.1 3.1-.3 3.1-.4 19.8.4 19.7.3 3.1 1.1 3.1m0-52 2.5-2.8 2.4-1.2 1.9-.4 8.4-.6 15.9-.2 15.9.2 8.4.6 1.9.4 2.4 1.2 2.5 2.8m-62.2 52.1 2.5 2.8 2.4 1.3 1.9.4 15.7.6 20.7 0m-28.4-261.1.4-1.7 0-36-.4-1.7m.4 39.8.9-2.1 0-36-.9-2.1m28 300.9 8.9-.3 5.2-.7 2.4-1.3 2.5-2.8m0-.1 1.1-3.1.5-7.9.1-23-.7-15m48.3.1-7.7.5-4.1 1.2-2.5 2-2 2.5-1.5 3.8-.7 6.4 0 20.9.7 6.4 1.3 3.5 2.2 2.9 2.5 1.9 4.1 1.3 10.7.7 20.1.2m-22.1-57.2-1.1 3.1-.3 3.1-.4 19.8.4 19.7.3 3.1 1.1 3.1m62.2-51.9 1.1 3.1.6 10.2m-1.7 38.6 1.1-3.1.5-7.9.1-27.6m21.2-166.8 0-61.6m0 129.1 0-64.7m0 132.2 0-64.6m66-70.8 13 0 .5.4m-13.5 67 13 0 .5.5m-13.5 67.1 13 0 .5.4m-13.5-.4 2.2-.6 1.7-1.7.6-2.3 0-18-.6-2.2-1.5-1.5m-2.4 93.7 13 0 .5.5m0-202.5 0-61.6m0 129.1 0-64.7m0 132.2 0-64.6m0 132.1 0-64.7m0 132.2 0-64.6m41.3-76.1 0-6m.8-.8.3 6.8m-.3-6.8.3-.4.5 7.2-.5 0m25.5 16.5 0-165m0 165-.4 0 0-165 .4 0m1.1 165 0-165m1.1 165 .4 0 0-165-.4 0m0 165 0-165m-480.2 248.2.6 9 .8 2.2 1.3 1.7 1.8 1.3 3.5.9 13 .5 26.8.1 26.9-.1 13-.5 3.5-.9 1.8-1.3 1.3-1.7.9-2.2.6-9-.6-8.9-.9-2.2-1.3-1.7-1.8-1.3-3.5-.9-13-.4-26.9-.2-26.8.2-13 .4-3.5.9-1.8 1.3-1.3 1.7-.8 2.2zm97.4 0 .6 9 .9 2.2 1.3 1.7 1.8 1.3 4.2.9 17.3.5 36.9.1 36.8-.1 17.3-.5 4.2-.9 1.8-1.3 1.3-1.7.8-2.2.6-9-.6-8.9-.8-2.2-1.3-1.7-1.8-1.3-4.2-.9-17.3-.4-36.8-.2-36.9.2-17.3.4-4.2.9-1.8 1.3-1.3 1.7-.9 2.2zm-620.9-40.2 0 46.2.4 1.2.1 0m1.6 23.8 0 20.6m9 0 0-20.6m-7.1-33-.3-34.8.4-7.4 1.4-3.8 3.5-.7 41.1-.3 41.1.3 3.5.7 1.4 3.8.4 7.4-.3 34.8m-7.1 33 0 20.6m9 0 0-20.6m1.6-23.8.1 0 .4-1.2 0-46.2m22.8 0 0 46.2.4 1.2.1 0m1.6 23.8 0 20.6m9 0 0-20.6m-7.1-33-.3-34.8.4-7.4 1.4-3.8 3.5-.7 41.1-.3 41.1.3 3.5.7 1.4 3.8.4 7.4-.3 34.8m-7.1 33 0 20.6m9 0 0-20.6m1.6-23.8.1 0 .4-1.2 0-46.2m188.4 91.8 0-2.8 16.5 0m45 .7 0-.7-19.8 0m40.6-31.7 1.7-.4 252.6 0m-254.3 24.8 1.7.4 252.6 0m-251.1.9 0 6.7m9 0 0-6.7m0 0 243.8 0m-236.3-27 236.3 0m7.4 33.7.1-6.5m5.2 0 .1 6.5m6.3-73 2.5 2.8 2.4 1.3 2 .4 8.3.5 15.9.2 15.9-.2 3.4-.2m1-.1 3.9-.2 2-.4 2.4-1.3 2.5-2.8m-57.5 73 .1-6.5m5.2 0 .1 6.5m12 0 .1-6.5m5.2 0 .1 6.5m11 0 .1-6.5m5.2 0 .1 6.5m41.2-111.9 0-28.8m0 134.2 0 8.6m9 0 0-8.6m27.2-299.4 29.8 0 2.2.6 1.7 1.6.6 2.2 0 18-.6 2.3-1.7 1.7-2.2.6m-29.8 40.4 29.8 0 2.2.6 1.7 1.7.6 2.3 0 18-.6 2.2-1.7 1.6-2.2.6m-29.8 40.6 29.8 0 2.2.6m-32 66.8 29.8 0 2.2.6 1.7 1.7.6 2.3 0 18-.6 2.2-1.7 1.7-2.2.5m-29.8-267 42.8 0 .5.5 0 2.9m-43.3.3 42.8 0 .4-.3 0-2.9-.4-.3-42.8 0m0 3.6 42.8 0 .5-.4m-43.3 61.2 29.8 0m-29.8 3.6 42.8 0 .4-.4 0-2.8-.4-.3-42.8 0m0 3.6 42.8 0 .5-.5m-43.3 64.2 29.8 0m-29.8 3.7 42.8 0 .4-.3 0-2.9-.4-.3-42.8 0m0 3.6 42.8 0 .5-.4m-43.3 64.2 29.8 0m-29.8 3.6 42.8 0 .4-.4 0-2.8-.4-.3-42.8 0m0 3.6 42.8 0 .5-.5m-43.3 64.2 29.8 0m-29.8 3.7 42.8 0 .4-.3 0-2.9-.4-.3-42.8 0m0 3.6 42.8 0 .5-.4m-43.3 64.2 42.8 0 .5.4m-43.3 3.2 42.8 0 .4-.4 0-2.8-.4-.3-42.8 0m0 3.6 42.8 0 .5-.5m0 7.8 0-7.8m94.5-115.2 0-8.7m50.7-37.1 0-112m-802.2 213.5 60 0 0 67.3m-60 0 0-67.3m471.9 15.7.6 9 .8 2.2 1.3 1.7 1.8 1.3 3.3.9 26.1.5m17.4 0 26.1-.5 3.3-.9 1.8-1.3 1.3-1.7.8-2.2.5-3.6 0-10.7-.5-3.6-.8-2.2-1.3-1.7-1.8-1.3-3.3-.9-34.8-.6-34.8.6-3.3.9-1.8 1.3-1.3 1.7-.8 2.2-.6 8.9m287.1 34 0 17.6m-6 0 0-17.6m51 0 0 17.6m-6 0 0-17.6m-374.9-52.4 17.8-.1 16.5-.7 5-1.3 2.5-1.9 2.2-2.9 1.3-3.5.7-6.4 0-20.9-.7-6.4-1.3-3.5-2.2-2.8-2.5-2-5-1.2-.9-.1m-1 0-12.4-.5m49.3-3 2.5-2.8 2.4-1.2 2-.4 8.3-.6 15.9-.2 15.9.2 4.6.3m4.9.5.8.2 2.4 1.2.6.7m24.8-212.9.4.4 5.1 0m-5.5 61.2.4-.4 5.1 0m-5.5 3.2.4.5 5.1 0m-5.5 64.2.4-.5 5.1 0m-5.5 3.4.4.4 5.1 0m-5.5 64.2.4-.4 5.1 0m-5.5 3.2.4.5 5.1 0m-5.4-202 .1 2.3 5.3.1m0 64.5-5.1 0-.3-.4.1-3.1 5.3 0m0 71-5.1 0-.3-.3.1-3.2 5.3 0m0 71-5.1 0-.3-.4.1-3.1 5.3 0m115 14.1 53.4 0m-195.1 18 5.5 0m136.2 6 47.3 0m-47.3.3 47.3 0m-47.3 62.4 47.3 0m-47.3.3 47.3 0"/></g><g id="stairs" stroke-width="1.1" opacity="0.85"><path d="m1211.8 419.6.2-8m-.2 15.4.2-8m-.2 15.4.2-8m0-14.8 140.5 0m-140.5 7.4.1-7.3m-.1 7.3 140.5 0m-140.5 7.3.1-7.2m-.1 7.3 140.5 0m-140.5 7.3.1-7.2m-.1 7.2 140.5 0m-140.4-22 140.3 0m-140.3 7.4 140.3 0m-140.3 7.4 140.3 0m-140.3 7.3 140.3 0m0-22.1.1 7.3m-.1.1.1 7.2m-.1.2.1 7.2m0-22.1.3 8m0 7.4 0-7.4m0 14.8 0-7.4m-141 7.4 0 6.7m.3-.3 0-7m140.3 7 0-7m.3 7.2.1-6.6"/></g><g id="glass" stroke-width="0.7" opacity="0.6"><path d="m480.4 73.5 0 316m-1.2 0 0-316"/></g><g id="openings" stroke-width="1.3"><path d="m14.8 273.5-.8-.7 0-3 .8-.8m0 4.3-.6-.5 0-3 .6-.6m469.4 121 0-317.4m.2 0 .3.3 5.1 0 .3-.3m-5.7.3 5.7 0m-5.7 316.8 0-316.8m0 316.8 5.7 0m-5.7.3.3-.3 5.1 0 .3.3m0-.3 0-316.8m.1 317.1 0-317.4m441.8 199 0-177.6m.2-.1 3.6 0m-3.6.1 3.6 0m-3.6 177.6 0-177.6m3.6-.1.1-4.8m-.1 183 0-178.1m.1-.1 4.8-.1m-4.8.1.1-4.8m-.1 4.9 4.8-.1m-4.8 178.2 0-178.1m.1-4.9 4.7 0m-4.6-.2 4.6 0m-4.3-.1 4 0m-4 .2 4.3 0m0 4.8 0-4.7m0 185.5 0-180.7m.1-4.8 0 4.3m0 181.4 0-180.9m.1-5 8.5 0 .4-.4m-8.9.6 8.9-.2m-8.9 4.8 0-4.6m0 185.7 0-181.1m.1-.3 0-4m0 185.6 0-181.6m8.8 196.4 0-200.9m.2-.4 0-8.1m0 209.4 0-201.3m117 0 0-8.1m.2 8.1.4.4 8.5 0m-8.9 0 8.9.2m-.1 4.3 0-4m.1 314-.1-310m.1 310 0-309.7m0 0 0-4.6m.1 4.3 0-4.3m0 314.3 0-309.5m0 309.5.1-309.5m0-5 4.6 0m-4.6.1 4.3 0m-4.3.1 4.7 0m-4.7 4.7 0-4.7m0 4.7 4.8.1m-4.8 0 4.8.1m-4.5-5.2 4 0m0 0 103.3 0m-103 .1 102.7 0m-102.6.2.1 4.8m0-4.9 102.3 0m-102.3 313.1 0-308.1m0-4.9 102.3 0m-102.3 0 .1 4.8m0 0 3.6 0m-3.6.1 3.6 0m-3.6 308.1 0-308.1m0 308.1 3.2 0 .4-.4 0-307.7m-3.6 308.3 3.2 0 .6-.6 0-307.7m0-.1 98.2 0m-98.2.1 98.2 0m0-.1.2-4.8m0 4.8 4.8-.1m-4.8.1.1-4.8m-.1 4.9 4.8-.1m-4.7-4.8 4.7 0m-4.6-.2 4.6 0m-4.3-.1 4 0m-4 .2 4.3 0m0 4.8 0-4.7m.1 0 0 4.3m.1-4.5 5.5 0m-5.5.2 5.5 0m-5.5 4.6 0-4.6m.1 4.3 0-4m5.4-.9 0-8.1m.2 8.1 0-8.1.4-.4m192.4 170.4 0-6.7m.1 6.8 0-6.9m-912.3-177.2-.2 329.9m18 0 0-330m-15.6 6.9-.1 316.3m5.8-.1 0-316.2m1.6-.6.2-6m-.2 323.4.2 6m0-323.4 0-5.8.2-.2m5.5 0 0 6m-5.7 317.4 0 5.8.2.2m5.5 0 0-6m0-323.4.1 6m-.1 323.4.1-6m441.8 11.5 0-6.5m.2 6.5 0-6.5m3.6 6.5 0-6.5m.1 6.5 0-6.5m4.8 6.6 0-6.6m.1 6.7 0-6.7m.1 0 0 6.7m.2 1.7 8.7.2m0 0 0-8.6m-8.9 6.7.1-6.7m8.6 8.6.4-.4 0-8.2m117-306.5 0 314.7.4.4m-.2-314.7 0 314.3.3.4m2.7 0 5.9-.2m.1 0 4.8.2m102.2-123 0-186.6m0 292 0 17.2.4.4m-.2-123 0-186.6m0 292 0 17.2.4.4m4.4-123 0-186.7m.1 186.7 0-186.7m.1 186.7 0-186.9m.1 186.9 0-187.2m5.4 25.2 0-29.5m0 191.5 0-41.6m0 147 .2 17.6m0-285 0-29.5m0 191.5 0-41.6m0 147 0 17.2.3.4m155.4-175.3 3.4 0m30.6 0 3.4 0 .8-.7 0-3-.8-.8-3.4 0m-30.6 0-3.4 0m0 4.3 3.4 0m30.6 0 3.4 0 .6-.5 0-3-.6-.6-3.4 0m-30.6 0-3.4 0m-875.1-157.6 0 329.8m17.6 0 0-329.8m-15.4 6.8 0 316.2m5.7 0 0-316.2m361.5 15.6 92.3 0m-92.3.2 91.8 0m-91.8 4.9 87.9 0m-87.9.1 87.9 0m-87.9-14.2 96.3 0m-96.3.2 96.3 0m-96.3 8.9 92 0m-92 .2 91.8 0m4.8-.2.2-8.4m0 8.4 0-8.4m.7-.7 6.3 0m-6.3.2 6.3 0m1.2 0 .7 0 0 8.5m117.4 0 0-8.5 8.2 0m-7.8-.2 7.8 0m1.2 0 111.3 0m-111.8.7 0 8.4m.5-8.9 111.3 0m-111.8.5.2 8.4m111.9 0 .2-8.4m0 8.4 0-8.4m.7-.5 5.4 0m-5.4-.2 6.7 0"/></g><g id="plinth" stroke-width="1.6"><path d="m1211.2 407 142 0"/></g><g id="walls" stroke-width="1.8"><path d="m843.5 14 127.5 0m-127.5 45 0-45m0 45 97.5 0m-97.5 221.1 0-221.1m97.5 0 7.5 0m-7.5 21.2 0-21.2m7.5 0 15 0m-15 21.2 0-21.2m15 0 7.5 0m0 0 0-45m75 0 15 0m0 0 15 0m0 0 112.5 0m-112.5 66.2 0-66.2m112.5 66.2 0-66.2m-1170 229.2 0-229.2 449.7 0m.3 389.8 0-344.6m30.3-45.2 344.7 0m-345 389.8 0-344.6m465 230.6 0-230.8m0 344.8 0-8.6m7.5-381.2 14.8 0m-14.8 276 0-231m30.2-45 44.8 0m0 389.8 0-389.8m15 389.8 0-389.8m127.5 0 7.3 0m15.4 0 142 0"/></g><g id="hatch" stroke-width="0.7" opacity=".5"><path d="m19.7 411.3 3.1-3.1m-3.1 10.1 10.1-10.1m-10.1 17.2 17.2-17.2m-17.2 24.3 24.3-24.3m-24.3 31.4 31.4-31.4m-31.4 38.4 38.4-38.4m-38.4 45.5 45.5-45.5m-45.5 52.6 52.6-52.6m-52.6 59.6 59.6-59.6m-59.6 66.7 66.7-66.7m-66.7 73.8 73.8-73.8m-73.8 80.9 80.9-80.9m-77.6 84.6 84.6-84.6m-77.5 84.6 84.6-84.6m-77.5 84.6 84.6-84.6m-77.6 84.6 84.6-84.6m-77.5 84.6 84.6-84.6m-77.5 84.6 84.6-84.6m-77.5 84.6 84.6-84.6m-77.6 84.6 84.6-84.6m-77.5 84.6 84.6-84.6m-77.5 84.6 84.6-84.6m-77.6 84.6 84.6-84.6m-77.5 84.6 84.6-84.6m-77.5 84.6 84.6-84.6m-77.6 84.6 84.6-84.6m-77.5 84.6 84.6-84.6m-77.5 84.6 84.6-84.6m-77.5 84.6 84.6-84.6m-77.6 84.6 84.6-84.6m-77.5 84.6 84.6-84.6m-77.5 84.6 84.6-84.6m-77.6 84.6 84.6-84.6m-77.5 84.6 84.6-84.6m-77.5 84.6 84.6-84.6m-77.5 84.6 84.6-84.6m-77.6 84.6 84.6-84.6m-77.5 84.6 84.6-84.6m-77.5 84.6 84.6-84.6m-77.6 84.6 84.6-84.6m-77.5 84.6 84.6-84.6m-77.5 84.6 84.6-84.6m-77.5 84.6 84.6-84.6m-77.6 84.6 84.6-84.6m-77.5 84.6 84.6-84.6m-77.5 84.6 84.6-84.6m-77.6 84.6 84.6-84.6m-77.5 84.6 84.6-84.6m-77.5 84.6 84.6-84.6m-77.5 84.6 84.6-84.6m-77.6 84.6 84.6-84.6m-77.5 84.6 84.6-84.6m-77.5 84.6 84.6-84.6m-77.6 84.6 84.6-84.6m-77.5 84.6 84.6-84.6m-77.5 84.6 84.6-84.6m-77.5 84.6 84.6-84.6m-77.6 84.6 84.6-84.6m-77.5 84.6 84.6-84.6m-77.5 84.6 84.6-84.6m-77.6 84.6 84.6-84.6m-77.5 84.6 84.6-84.6m-77.5 84.6 84.6-84.6m-77.6 84.6 84.6-84.6m-77.5 84.6 84.6-84.6m-77.5 84.6 84.6-84.6m-77.5 84.6 84.6-84.6m-77.6 84.6 84.6-84.6m-77.5 84.6 84.6-84.6m-77.5 84.6 84.6-84.6m-77.6 84.6 84.6-84.6m-77.5 84.6 84.6-84.6m-77.5 84.6 84.6-84.6m-77.5 84.6 84.6-84.6m-77.6 84.6 84.6-84.6m-77.5 84.6 84.6-84.6m-77.5 84.6 84.6-84.6m-77.6 84.6 84.6-84.6m-77.5 84.6 84.6-84.6m-77.5 84.6 84.6-84.6m-77.5 84.6 84.6-84.6m-77.6 84.6 84.6-84.6m-77.5 84.6 84.6-84.6m-77.5 84.6 84.6-84.6m-77.6 84.6 84.6-84.6m-77.5 84.6 84.6-84.6m-77.5 84.6 84.6-84.6m-77.5 84.6 84.6-84.6m-77.6 84.6 84.6-84.6m-77.5 84.6 84.6-84.6m-77.5 84.6 84.6-84.6m-77.6 84.6 84.6-84.6m-77.5 84.6 84.6-84.6m-77.5 84.6 84.6-84.6m-77.5 84.6 84.6-84.6m-77.6 84.6 84.6-84.6m-77.5 84.6 84.6-84.6m-77.5 84.6 84.6-84.6m-77.6 84.6 84.6-84.6m-77.5 84.6 84.6-84.6m-77.5 84.6 84.6-84.6m-77.6 84.6 84.6-84.6m-77.5 84.6 84.6-84.6m-77.5 84.6 84.6-84.6m-77.5 84.6 84.6-84.6m-77.6 84.6 84.6-84.6m-77.5 84.6 84.6-84.6m-77.5 84.6 84.6-84.6m-77.6 84.6 84.6-84.6m-77.5 84.6 84.6-84.6m-77.5 84.6 84.6-84.6m-77.5 84.6 84.6-84.6m-77.6 84.6 84.6-84.6m-77.5 84.6 84.6-84.6m-77.5 84.6 84.6-84.6m-77.6 84.6 84.6-84.6m-77.5 84.6 84.6-84.6m-77.5 84.6 84.6-84.6m-77.5 84.6 84.6-84.6m-77.6 84.6 84.6-84.6m-77.5 84.6 84.6-84.6m-77.5 84.6 84.6-84.6m-77.6 84.6 84.6-84.6m-77.5 84.6 84.6-84.6m-77.5 84.6 84.6-84.6m-77.5 84.6 84.6-84.6m-77.6 84.6 84.6-84.6m-77.5 84.6 84.6-84.6m-77.5 84.6 84.6-84.6m-77.6 84.6 84.6-84.6m-77.5 84.6 84.6-84.6m-77.5 84.6 84.6-84.6m-77.5 84.6 84.6-84.6m-77.6 84.6 84.6-84.6m-77.5 84.6 84.6-84.6m-77.5 84.6 84.6-84.6m-77.6 84.6 84.6-84.6m-77.5 84.6 84.6-84.6m-77.5 84.6 84.6-84.6m-77.6 84.6 84.6-84.6m-77.5 84.6 84.6-84.6m-77.5 84.6 84.6-84.6m-77.5 84.6 84.6-84.6m-77.6 84.6 84.6-84.6m-77.5 84.6 84.6-84.6m-77.5 84.6 84.6-84.6m-77.6 84.6 84.6-84.6m-77.5 84.6 84.6-84.6m-77.5 84.6 84.6-84.6m-77.5 84.6 84.6-84.6m-77.6 84.6 84.6-84.6m-77.5 84.6 84.6-84.6m-77.5 84.6 84.6-84.6m-77.6 84.6 84.6-84.6m-77.5 84.6 84.6-84.6m-77.5 84.6 84.6-84.6m-77.5 84.6 84.6-84.6m-77.6 84.6 84.6-84.6m-77.5 84.6 84.6-84.6m-77.5 84.6 84.6-84.6m-77.6 84.6 84.6-84.6m-77.5 84.6 84.6-84.6m-77.5 84.6 84.6-84.6m-77.5 84.6 84.6-84.6m-77.6 84.6 84.6-84.6m-77.5 84.6 84.6-84.6m-77.5 84.6 84.6-84.6m-77.6 84.6 84.6-84.6m-77.5 84.6 83.7-83.7m-76.6 83.7 76.6-76.6m-69.5 76.6 69.5-69.5m-62.5 69.5 62.5-62.5m-55.4 62.5 55.4-55.4m-48.3 55.4 48.3-48.3m-41.3 48.3 41.3-41.3m-34.2 41.3 34.2-34.2m-27.1 34.2 27.1-27.1m-20 27.1 20-20m-13 20 13-13m-5.9 13 5.9-5.9m144.9-74.2 4.5-4.5m-4.5 11.6 11.6-11.6m-11.6 18.6 18.6-18.6m-18.6 25.7 25.7-25.7m-25.7 32.8 27.6-27.6m-27.6 34.7 27.6-27.6m-27.6 34.6 27.6-27.6m-27.6 34.7 27.6-27.6m-27.6 34.7 27.6-27.6m-27.6 34.6 27.6-27.6m-27.6 34.7 27.6-27.6m-27.6 34.7 27.6-27.6m-22.8 29.9 22.8-22.8m-15.8 22.8 15.8-15.8m-8.7 15.8 8.7-8.7m-1.6 8.7 1.6-1.6"/></g><g id="cut-ground" stroke-width="1.6"><path d="m1353.5 494 30 0 0-87-30 0zm-1335 0 1192.5 0 0-87-1192.5 0z"/></g><g id="cut-furniture" stroke-width="1.2"><path d="m1352.5 490.7.3-49-.9-.9-139.3 0-.9.9 0 48.4.9.9zm-162.8-255.5 0 3.8 6.3 0 0-3.8zm1.8-3.7 4.5 0 0-112.5-6.3 0 0 3.7 1.8 0zm4.2 154.2 0-104.4-62.4 0 0 104.4zm-218.1 8.4.9-2.1 0-21-.9-2.1-2-.9-6 0 3.3-.7 3-1.9 1.9-3 .7-3.4 0-60-.7-3.4-1.9-3-3-1.9-2-.4-16.4-.3-3.4.7-3 1.9-1.9 3-.7 3.4 0 60 .7 3.4 1.9 3 3 1.9 3.3.7-92.9 0-2.1.9-.9 2.1 0 21 .9 2.1 2.1.9 114 0zm-110.3-27.7 58 .4 11.4-.4 3.2-.7 1.5-1.1 1-1.4 1-4.1.2-12.2-.8-4.4-.4-1.2-1.9-2-3.8-1.2-25.2-.5-32.8.1-11.4.4-3.2.7-1.5 1.1-1 1.4-1 4.1-.2 12.2.8 4.4 1.4 2.6 1.5 1.1zm52.3-40.7 1.9 4.7 1.6 1 5.3 1.7 2.1.2 3.4-.6 4-1.3 1.5-.9 1-1.6 1-3.2.7-6.4 0-21.1-.7-6.4-1.9-4.7-4.3-2-4.7-.9-2.1.2-5.3 1.7-1.6.9-.9 1.6-1 3.2-.7 6.4-.2 10.5.2 10.6zm21.2 78.1.2-1.2-.8-.7-358.4 0-.8.7.2 1.2.6.2zm-606.7-21.7.9-2.1 0-18-.9-2.1-2.1-.9-96 0-2.1.9-.9 2.1 0 18 .9 2.1 2.1.9 96 0zm-38.8-23.4 29.9-.3 2.7-.4 1.6-1.6.4-1 .2-4.1-.6-1.7-1.6-1.6-2.7-.4-69.4-.3-13 .3-2.7.4-1.6 1.6-.7 2.2 0 2.4.7 2.2 1.6 1.6 2.7.4zm-84.2 23.4.9-2.1 0-18-.9-2.1-2.1-.9-96 0-2.1.9-.9 2.1 0 18 .9 2.1 2.1.9 96 0zm-38.8-23.4 29.9-.3 2.7-.4 1.6-1.6.4-1 .2-4.1-.6-1.7-1.6-1.6-2.7-.4-69.4-.3-13 .3-2.7.4-1.6 1.6-.7 2.2 0 2.4.7 2.2 1.6 1.6 2.7.4zm308.1-127.2 0 159-1.2 0 0-159m0 0 0-159 1.2 0 0 159"/></g></svg>